<svg width="194" height="58" viewBox="0 0 194 58" fill="none" xmlns="http://www.w3.org/2000/svg">
<path opacity="0.7" d="M1.856 51.08C1.664 51.08 1.504 51.0267 1.376 50.92C1.25867 50.8027 1.2 50.6427 1.2 50.44V43.688C1.2 43.4853 1.25867 43.3307 1.376 43.224C1.504 43.1067 1.664 43.048 1.856 43.048C2.048 43.048 2.20267 43.1067 2.32 43.224C2.43733 43.3307 2.496 43.4853 2.496 43.688V50.44C2.496 50.6533 2.43733 50.8133 2.32 50.92C2.20267 51.0267 2.048 51.08 1.856 51.08ZM1.856 41.368C1.6 41.368 1.392 41.2933 1.232 41.144C1.072 40.9947 0.992 40.7973 0.992 40.552C0.992 40.3173 1.072 40.1253 1.232 39.976C1.392 39.8267 1.6 39.752 1.856 39.752C2.112 39.752 2.32 39.8267 2.48 39.976C2.64 40.1253 2.72 40.3173 2.72 40.552C2.72 40.7973 2.64 40.9947 2.48 41.144C2.32 41.2933 2.112 41.368 1.856 41.368ZM9.83075 51.128C8.78542 51.128 7.87342 50.8933 7.09475 50.424C6.32675 49.9547 5.73475 49.288 5.31875 48.424C4.90275 47.56 4.69475 46.5413 4.69475 45.368C4.69475 44.184 4.89742 43.16 5.30275 42.296C5.71875 41.4213 6.31075 40.7547 7.07875 40.296C7.85742 39.8267 8.77475 39.592 9.83075 39.592C10.8868 39.592 11.7988 39.8267 12.5668 40.296C13.3454 40.7547 13.9374 41.4213 14.3428 42.296C14.7588 43.16 14.9668 44.1787 14.9668 45.352C14.9668 46.5253 14.7588 47.5493 14.3428 48.424C13.9268 49.288 13.3294 49.9547 12.5508 50.424C11.7828 50.8933 10.8761 51.128 9.83075 51.128ZM9.83075 50.008C11.0254 50.008 11.9534 49.608 12.6148 48.808C13.2868 47.9973 13.6228 46.8453 13.6228 45.352C13.6228 43.8587 13.2921 42.712 12.6308 41.912C11.9694 41.112 11.0361 40.712 9.83075 40.712C8.63608 40.712 7.70275 41.1173 7.03075 41.928C6.36942 42.728 6.03875 43.8693 6.03875 45.352C6.03875 46.8347 6.36942 47.9813 7.03075 48.792C7.70275 49.6027 8.63608 50.008 9.83075 50.008ZM20.9295 51.128C20.1295 51.128 19.3615 51.0107 18.6255 50.776C17.9002 50.5307 17.3188 50.2053 16.8815 49.8C16.7215 49.6507 16.6415 49.464 16.6415 49.24C16.6415 49.0907 16.6842 48.9627 16.7695 48.856C16.8548 48.7387 16.9562 48.68 17.0735 48.68C17.2122 48.68 17.3615 48.7387 17.5215 48.856C18.5135 49.624 19.6442 50.008 20.9135 50.008C21.8308 50.008 22.5348 49.832 23.0255 49.48C23.5162 49.128 23.7615 48.6267 23.7615 47.976C23.7615 47.6027 23.6442 47.304 23.4095 47.08C23.1748 46.8453 22.8655 46.6587 22.4815 46.52C22.0975 46.3813 21.5802 46.2373 20.9295 46.088C20.0548 45.8853 19.3348 45.672 18.7695 45.448C18.2148 45.224 17.7615 44.904 17.4095 44.488C17.0682 44.072 16.8975 43.528 16.8975 42.856C16.8975 42.216 17.0682 41.6507 17.4095 41.16C17.7615 40.6587 18.2468 40.2747 18.8655 40.008C19.4948 39.7307 20.2095 39.592 21.0095 39.592C21.7562 39.592 22.4495 39.7093 23.0895 39.944C23.7402 40.168 24.2842 40.4933 24.7215 40.92C24.8922 41.0907 24.9775 41.2773 24.9775 41.48C24.9775 41.6293 24.9348 41.7627 24.8495 41.88C24.7642 41.9867 24.6628 42.04 24.5455 42.04C24.4282 42.04 24.2735 41.9813 24.0815 41.864C23.5588 41.4373 23.0735 41.1387 22.6255 40.968C22.1775 40.7973 21.6388 40.712 21.0095 40.712C20.1242 40.712 19.4362 40.8987 18.9455 41.272C18.4548 41.6347 18.2095 42.1467 18.2095 42.808C18.2095 43.3733 18.4228 43.8 18.8495 44.088C19.2868 44.3653 19.9535 44.6107 20.8495 44.824C21.8202 45.0587 22.5828 45.2773 23.1375 45.48C23.6922 45.672 24.1508 45.9653 24.5135 46.36C24.8868 46.7547 25.0735 47.2827 25.0735 47.944C25.0735 48.5733 24.8975 49.128 24.5455 49.608C24.2042 50.088 23.7188 50.4613 23.0895 50.728C22.4602 50.9947 21.7402 51.128 20.9295 51.128ZM32.0015 51C31.7988 51 31.6335 50.9413 31.5055 50.824C31.3882 50.7067 31.3295 50.552 31.3295 50.36V40.36C31.3295 40.168 31.3882 40.0133 31.5055 39.896C31.6335 39.7787 31.7988 39.72 32.0015 39.72H35.1215C36.9242 39.72 38.3162 40.2107 39.2975 41.192C40.2895 42.1627 40.7855 43.5493 40.7855 45.352C40.7855 47.1547 40.2895 48.5467 39.2975 49.528C38.3055 50.5093 36.9135 51 35.1215 51H32.0015ZM35.0415 49.88C37.9642 49.88 39.4255 48.3707 39.4255 45.352C39.4255 42.344 37.9642 40.84 35.0415 40.84H32.6415V49.88H35.0415ZM48.9976 49.192C49.115 49.192 49.2163 49.24 49.3016 49.336C49.387 49.432 49.4296 49.5547 49.4296 49.704C49.4296 49.9707 49.243 50.216 48.8696 50.44C48.4856 50.664 48.0803 50.8347 47.6536 50.952C47.227 51.0587 46.811 51.112 46.4056 51.112C45.2003 51.112 44.2456 50.7547 43.5416 50.04C42.8483 49.3253 42.5016 48.3387 42.5016 47.08C42.5016 46.28 42.6563 45.576 42.9656 44.968C43.275 44.3493 43.707 43.8693 44.2616 43.528C44.827 43.1867 45.467 43.016 46.1816 43.016C47.195 43.016 48.0003 43.3467 48.5976 44.008C49.195 44.6693 49.4936 45.5653 49.4936 46.696C49.4936 46.9093 49.451 47.064 49.3656 47.16C49.2803 47.256 49.1416 47.304 48.9496 47.304H43.7976C43.8936 49.1387 44.763 50.056 46.4056 50.056C46.8216 50.056 47.179 50.0027 47.4776 49.896C47.7763 49.7787 48.0963 49.624 48.4376 49.432C48.715 49.272 48.9016 49.192 48.9976 49.192ZM46.1976 44.024C45.515 44.024 44.9656 44.2373 44.5496 44.664C44.1443 45.0907 43.9043 45.6933 43.8296 46.472H48.3576C48.3363 45.6827 48.139 45.08 47.7656 44.664C47.3923 44.2373 46.8696 44.024 46.1976 44.024ZM56.9254 43.448C57.0427 43.192 57.2294 43.064 57.4854 43.064C57.6454 43.064 57.7894 43.1173 57.9174 43.224C58.0454 43.3307 58.1094 43.464 58.1094 43.624C58.1094 43.72 58.088 43.8053 58.0454 43.88L54.9254 50.6C54.8614 50.7387 54.7654 50.8507 54.6374 50.936C54.5094 51.0107 54.3707 51.048 54.2214 51.048C54.0827 51.048 53.9494 51.0107 53.8214 50.936C53.6934 50.8507 53.592 50.7387 53.5174 50.6L50.4134 43.88C50.3707 43.8053 50.3494 43.7253 50.3494 43.64C50.3494 43.48 50.4187 43.3413 50.5574 43.224C50.7067 43.1067 50.8667 43.048 51.0374 43.048C51.144 43.048 51.2454 43.08 51.3414 43.144C51.448 43.208 51.528 43.2987 51.5814 43.416L54.2534 49.416L56.9254 43.448ZM65.4664 49.192C65.5837 49.192 65.685 49.24 65.7704 49.336C65.8557 49.432 65.8984 49.5547 65.8984 49.704C65.8984 49.9707 65.7117 50.216 65.3384 50.44C64.9544 50.664 64.549 50.8347 64.1224 50.952C63.6957 51.0587 63.2797 51.112 62.8744 51.112C61.669 51.112 60.7144 50.7547 60.0104 50.04C59.317 49.3253 58.9704 48.3387 58.9704 47.08C58.9704 46.28 59.125 45.576 59.4344 44.968C59.7437 44.3493 60.1757 43.8693 60.7304 43.528C61.2957 43.1867 61.9357 43.016 62.6504 43.016C63.6637 43.016 64.469 43.3467 65.0664 44.008C65.6637 44.6693 65.9624 45.5653 65.9624 46.696C65.9624 46.9093 65.9197 47.064 65.8344 47.16C65.749 47.256 65.6104 47.304 65.4184 47.304H60.2664C60.3624 49.1387 61.2317 50.056 62.8744 50.056C63.2904 50.056 63.6477 50.0027 63.9464 49.896C64.245 49.7787 64.565 49.624 64.9064 49.432C65.1837 49.272 65.3704 49.192 65.4664 49.192ZM62.6664 44.024C61.9837 44.024 61.4344 44.2373 61.0184 44.664C60.613 45.0907 60.373 45.6933 60.2984 46.472H64.8264C64.805 45.6827 64.6077 45.08 64.2344 44.664C63.861 44.2373 63.3384 44.024 62.6664 44.024ZM68.5279 51.08C68.3359 51.08 68.1759 51.0267 68.0479 50.92C67.9305 50.8027 67.8719 50.6427 67.8719 50.44V40.28C67.8719 40.0773 67.9305 39.9227 68.0479 39.816C68.1759 39.6987 68.3359 39.64 68.5279 39.64C68.7092 39.64 68.8585 39.6987 68.9759 39.816C69.1039 39.9227 69.1679 40.0773 69.1679 40.28V50.44C69.1679 50.6427 69.1039 50.8027 68.9759 50.92C68.8585 51.0267 68.7092 51.08 68.5279 51.08ZM74.8226 51.112C74.0866 51.112 73.436 50.9467 72.8706 50.616C72.316 50.2853 71.884 49.816 71.5746 49.208C71.276 48.5893 71.1266 47.8747 71.1266 47.064C71.1266 46.2533 71.276 45.544 71.5746 44.936C71.884 44.3173 72.316 43.8427 72.8706 43.512C73.436 43.1813 74.0866 43.016 74.8226 43.016C75.5586 43.016 76.2093 43.1813 76.7746 43.512C77.34 43.8427 77.772 44.3173 78.0706 44.936C78.38 45.544 78.5346 46.2533 78.5346 47.064C78.5346 47.8747 78.38 48.5893 78.0706 49.208C77.772 49.816 77.34 50.2853 76.7746 50.616C76.2093 50.9467 75.5586 51.112 74.8226 51.112ZM74.8226 50.04C75.5906 50.04 76.1773 49.7893 76.5826 49.288C76.9986 48.776 77.2066 48.0347 77.2066 47.064C77.2066 46.1147 76.9986 45.384 76.5826 44.872C76.1666 44.3493 75.58 44.088 74.8226 44.088C74.0653 44.088 73.4786 44.3493 73.0626 44.872C72.6466 45.384 72.4386 46.1147 72.4386 47.064C72.4386 48.024 72.6413 48.76 73.0466 49.272C73.4626 49.784 74.0546 50.04 74.8226 50.04ZM84.3856 43.016C85.0683 43.016 85.671 43.1867 86.1936 43.528C86.7163 43.8693 87.1216 44.3493 87.4096 44.968C87.6976 45.576 87.8416 46.2853 87.8416 47.096C87.8416 47.9067 87.6976 48.616 87.4096 49.224C87.1216 49.8213 86.7163 50.2853 86.1936 50.616C85.6816 50.9467 85.079 51.112 84.3856 51.112C83.7776 51.112 83.2443 50.9787 82.7856 50.712C82.3376 50.4453 81.9963 50.0667 81.7616 49.576V53.336C81.7616 53.528 81.703 53.6773 81.5856 53.784C81.479 53.9013 81.3243 53.96 81.1216 53.96C80.919 53.96 80.759 53.9013 80.6416 53.784C80.5243 53.6667 80.4656 53.5173 80.4656 53.336V43.688C80.4656 43.496 80.5243 43.3413 80.6416 43.224C80.759 43.1067 80.919 43.048 81.1216 43.048C81.3243 43.048 81.479 43.1067 81.5856 43.224C81.703 43.3413 81.7616 43.496 81.7616 43.688V44.552C81.9963 44.0613 82.3376 43.6827 82.7856 43.416C83.2443 43.1493 83.7776 43.016 84.3856 43.016ZM84.1296 50.04C84.887 50.04 85.4736 49.784 85.8896 49.272C86.3056 48.76 86.5136 48.0347 86.5136 47.096C86.5136 46.1573 86.3056 45.4267 85.8896 44.904C85.4736 44.3707 84.887 44.104 84.1296 44.104C83.3723 44.104 82.7856 44.36 82.3696 44.872C81.9643 45.384 81.7616 46.1147 81.7616 47.064C81.7616 48.0133 81.9643 48.7493 82.3696 49.272C82.7856 49.784 83.3723 50.04 84.1296 50.04ZM95.8101 49.192C95.9275 49.192 96.0288 49.24 96.1141 49.336C96.1995 49.432 96.2421 49.5547 96.2421 49.704C96.2421 49.9707 96.0555 50.216 95.6821 50.44C95.2981 50.664 94.8928 50.8347 94.4661 50.952C94.0395 51.0587 93.6235 51.112 93.2181 51.112C92.0128 51.112 91.0581 50.7547 90.3541 50.04C89.6608 49.3253 89.3141 48.3387 89.3141 47.08C89.3141 46.28 89.4688 45.576 89.7781 44.968C90.0875 44.3493 90.5195 43.8693 91.0741 43.528C91.6395 43.1867 92.2795 43.016 92.9941 43.016C94.0075 43.016 94.8128 43.3467 95.4101 44.008C96.0075 44.6693 96.3061 45.5653 96.3061 46.696C96.3061 46.9093 96.2635 47.064 96.1781 47.16C96.0928 47.256 95.9541 47.304 95.7621 47.304H90.6101C90.7061 49.1387 91.5755 50.056 93.2181 50.056C93.6341 50.056 93.9915 50.0027 94.2901 49.896C94.5888 49.7787 94.9088 49.624 95.2501 49.432C95.5275 49.272 95.7141 49.192 95.8101 49.192ZM93.0101 44.024C92.3275 44.024 91.7781 44.2373 91.3621 44.664C90.9568 45.0907 90.7168 45.6933 90.6421 46.472H95.1701C95.1488 45.6827 94.9515 45.08 94.5781 44.664C94.2048 44.2373 93.6821 44.024 93.0101 44.024ZM102.072 43.048C102.52 43.016 102.744 43.1973 102.744 43.592C102.744 43.7627 102.696 43.9013 102.6 44.008C102.504 44.104 102.338 44.1627 102.104 44.184L101.624 44.232C100.909 44.296 100.376 44.552 100.024 45C99.6823 45.4373 99.5116 45.9547 99.5116 46.552V50.44C99.5116 50.6533 99.453 50.8133 99.3356 50.92C99.2183 51.0267 99.0636 51.08 98.8716 51.08C98.6796 51.08 98.5196 51.0267 98.3916 50.92C98.2743 50.8027 98.2156 50.6427 98.2156 50.44V43.688C98.2156 43.4853 98.2796 43.3307 98.4076 43.224C98.5356 43.1067 98.6903 43.048 98.8716 43.048C99.0423 43.048 99.1863 43.1067 99.3036 43.224C99.421 43.3307 99.4796 43.48 99.4796 43.672V44.568C99.7036 44.0987 100.018 43.7413 100.424 43.496C100.84 43.2507 101.314 43.1067 101.848 43.064L102.072 43.048ZM111.165 43.016C113.117 43.016 114.093 44.04 114.093 46.088V50.44C114.093 50.632 114.035 50.7867 113.917 50.904C113.811 51.0213 113.661 51.08 113.469 51.08C113.277 51.08 113.123 51.0213 113.005 50.904C112.888 50.7867 112.829 50.632 112.829 50.44V49.672C112.627 50.1307 112.317 50.488 111.901 50.744C111.485 50.9893 111.005 51.112 110.461 51.112C109.96 51.112 109.496 51.0107 109.069 50.808C108.653 50.6053 108.323 50.3227 108.077 49.96C107.832 49.5973 107.709 49.1973 107.709 48.76C107.709 48.1733 107.859 47.72 108.157 47.4C108.456 47.0693 108.947 46.8347 109.629 46.696C110.312 46.5467 111.261 46.472 112.477 46.472H112.829V45.944C112.829 45.304 112.696 44.8347 112.429 44.536C112.173 44.2373 111.752 44.088 111.165 44.088C110.44 44.088 109.704 44.2853 108.957 44.68C108.669 44.8613 108.467 44.952 108.349 44.952C108.221 44.952 108.115 44.904 108.029 44.808C107.944 44.712 107.901 44.5893 107.901 44.44C107.901 44.2907 107.944 44.1627 108.029 44.056C108.125 43.9387 108.275 43.8213 108.477 43.704C108.851 43.4907 109.272 43.3253 109.741 43.208C110.221 43.08 110.696 43.016 111.165 43.016ZM110.637 50.088C111.277 50.088 111.8 49.8747 112.205 49.448C112.621 49.0107 112.829 48.4507 112.829 47.768V47.304H112.541C111.603 47.304 110.888 47.3467 110.397 47.432C109.907 47.5067 109.555 47.64 109.341 47.832C109.139 48.0133 109.037 48.2853 109.037 48.648C109.037 49.064 109.187 49.4107 109.485 49.688C109.795 49.9547 110.179 50.088 110.637 50.088ZM120.066 50.056C120.439 50.088 120.626 50.2587 120.626 50.568C120.626 50.7493 120.556 50.888 120.418 50.984C120.29 51.0693 120.092 51.1013 119.826 51.08L119.394 51.048C118.54 50.984 117.911 50.728 117.506 50.28C117.1 49.832 116.898 49.1547 116.898 48.248V44.232H115.826C115.644 44.232 115.5 44.1893 115.394 44.104C115.298 44.008 115.25 43.8853 115.25 43.736C115.25 43.576 115.298 43.448 115.394 43.352C115.5 43.256 115.644 43.208 115.826 43.208H116.898V41.4C116.898 41.1973 116.956 41.0427 117.074 40.936C117.191 40.8187 117.351 40.76 117.554 40.76C117.746 40.76 117.9 40.8187 118.018 40.936C118.135 41.0427 118.194 41.1973 118.194 41.4V43.208H119.97C120.14 43.208 120.274 43.256 120.37 43.352C120.476 43.448 120.53 43.576 120.53 43.736C120.53 43.8853 120.476 44.008 120.37 44.104C120.274 44.1893 120.14 44.232 119.97 44.232H118.194V48.312C118.194 48.8987 118.311 49.3253 118.546 49.592C118.791 49.848 119.154 49.992 119.634 50.024L120.066 50.056ZM126.876 51.08C126.673 51.08 126.513 51.0213 126.396 50.904C126.279 50.776 126.22 50.6107 126.22 50.408V40.36C126.22 40.168 126.279 40.0133 126.396 39.896C126.524 39.7787 126.689 39.72 126.892 39.72H132.716C132.908 39.72 133.057 39.768 133.164 39.864C133.271 39.96 133.324 40.0987 133.324 40.28C133.324 40.4507 133.271 40.584 133.164 40.68C133.057 40.776 132.908 40.824 132.716 40.824H127.516V44.712H132.396C132.588 44.712 132.737 44.76 132.844 44.856C132.951 44.952 133.004 45.0907 133.004 45.272C133.004 45.4427 132.951 45.576 132.844 45.672C132.737 45.768 132.588 45.816 132.396 45.816H127.516V50.408C127.516 50.6107 127.457 50.776 127.34 50.904C127.233 51.0213 127.079 51.08 126.876 51.08ZM137.884 43.016C139.836 43.016 140.812 44.04 140.812 46.088V50.44C140.812 50.632 140.753 50.7867 140.636 50.904C140.529 51.0213 140.38 51.08 140.188 51.08C139.996 51.08 139.841 51.0213 139.724 50.904C139.607 50.7867 139.548 50.632 139.548 50.44V49.672C139.345 50.1307 139.036 50.488 138.62 50.744C138.204 50.9893 137.724 51.112 137.18 51.112C136.679 51.112 136.215 51.0107 135.788 50.808C135.372 50.6053 135.041 50.3227 134.796 49.96C134.551 49.5973 134.428 49.1973 134.428 48.76C134.428 48.1733 134.577 47.72 134.876 47.4C135.175 47.0693 135.665 46.8347 136.348 46.696C137.031 46.5467 137.98 46.472 139.196 46.472H139.548V45.944C139.548 45.304 139.415 44.8347 139.148 44.536C138.892 44.2373 138.471 44.088 137.884 44.088C137.159 44.088 136.423 44.2853 135.676 44.68C135.388 44.8613 135.185 44.952 135.068 44.952C134.94 44.952 134.833 44.904 134.748 44.808C134.663 44.712 134.62 44.5893 134.62 44.44C134.62 44.2907 134.663 44.1627 134.748 44.056C134.844 43.9387 134.993 43.8213 135.196 43.704C135.569 43.4907 135.991 43.3253 136.46 43.208C136.94 43.08 137.415 43.016 137.884 43.016ZM137.356 50.088C137.996 50.088 138.519 49.8747 138.924 49.448C139.34 49.0107 139.548 48.4507 139.548 47.768V47.304H139.26C138.321 47.304 137.607 47.3467 137.116 47.432C136.625 47.5067 136.273 47.64 136.06 47.832C135.857 48.0133 135.756 48.2853 135.756 48.648C135.756 49.064 135.905 49.4107 136.204 49.688C136.513 49.9547 136.897 50.088 137.356 50.088ZM146.4 51.112C145.675 51.112 145.03 50.9467 144.464 50.616C143.91 50.2853 143.478 49.816 143.168 49.208C142.87 48.6 142.72 47.896 142.72 47.096C142.72 46.296 142.875 45.5867 143.184 44.968C143.504 44.3493 143.947 43.8693 144.512 43.528C145.078 43.1867 145.728 43.016 146.464 43.016C146.87 43.016 147.27 43.0747 147.664 43.192C148.07 43.2987 148.422 43.4587 148.72 43.672C148.912 43.8 149.046 43.928 149.12 44.056C149.206 44.1733 149.248 44.3067 149.248 44.456C149.248 44.6053 149.206 44.728 149.12 44.824C149.046 44.92 148.944 44.968 148.816 44.968C148.742 44.968 148.662 44.9467 148.576 44.904C148.491 44.8613 148.416 44.8187 148.352 44.776C148.299 44.7333 148.262 44.7067 148.24 44.696C147.963 44.5147 147.696 44.3707 147.44 44.264C147.195 44.1573 146.891 44.104 146.528 44.104C145.75 44.104 145.142 44.3707 144.704 44.904C144.278 45.4267 144.064 46.1573 144.064 47.096C144.064 48.0347 144.278 48.76 144.704 49.272C145.142 49.784 145.75 50.04 146.528 50.04C146.891 50.04 147.2 49.9867 147.456 49.88C147.723 49.7733 147.99 49.6293 148.256 49.448C148.374 49.3733 148.486 49.3093 148.592 49.256C148.699 49.2027 148.79 49.176 148.864 49.176C148.982 49.176 149.078 49.224 149.152 49.32C149.238 49.416 149.28 49.5387 149.28 49.688C149.28 49.8267 149.243 49.9547 149.168 50.072C149.094 50.1787 148.955 50.3013 148.752 50.44C148.454 50.6427 148.091 50.808 147.664 50.936C147.248 51.0533 146.827 51.112 146.4 51.112ZM156.873 49.192C156.99 49.192 157.091 49.24 157.177 49.336C157.262 49.432 157.305 49.5547 157.305 49.704C157.305 49.9707 157.118 50.216 156.745 50.44C156.361 50.664 155.955 50.8347 155.529 50.952C155.102 51.0587 154.686 51.112 154.281 51.112C153.075 51.112 152.121 50.7547 151.417 50.04C150.723 49.3253 150.377 48.3387 150.377 47.08C150.377 46.28 150.531 45.576 150.841 44.968C151.15 44.3493 151.582 43.8693 152.137 43.528C152.702 43.1867 153.342 43.016 154.057 43.016C155.07 43.016 155.875 43.3467 156.473 44.008C157.07 44.6693 157.369 45.5653 157.369 46.696C157.369 46.9093 157.326 47.064 157.241 47.16C157.155 47.256 157.017 47.304 156.825 47.304H151.673C151.769 49.1387 152.638 50.056 154.281 50.056C154.697 50.056 155.054 50.0027 155.353 49.896C155.651 49.7787 155.971 49.624 156.313 49.432C156.59 49.272 156.777 49.192 156.873 49.192ZM154.073 44.024C153.39 44.024 152.841 44.2373 152.425 44.664C152.019 45.0907 151.779 45.6933 151.705 46.472H156.233C156.211 45.6827 156.014 45.08 155.641 44.664C155.267 44.2373 154.745 44.024 154.073 44.024ZM163.198 43.016C163.881 43.016 164.483 43.1813 165.006 43.512C165.529 43.8427 165.934 44.312 166.222 44.92C166.51 45.528 166.654 46.232 166.654 47.032C166.654 47.8427 166.51 48.5573 166.222 49.176C165.934 49.784 165.529 50.2587 165.006 50.6C164.483 50.9413 163.881 51.112 163.198 51.112C162.59 51.112 162.057 50.9787 161.598 50.712C161.15 50.4453 160.809 50.0667 160.574 49.576V50.44C160.574 50.632 160.515 50.7867 160.398 50.904C160.291 51.0213 160.137 51.08 159.934 51.08C159.731 51.08 159.571 51.0213 159.454 50.904C159.337 50.7867 159.278 50.632 159.278 50.44V40.264C159.278 40.0827 159.337 39.9333 159.454 39.816C159.571 39.6987 159.731 39.64 159.934 39.64C160.137 39.64 160.291 39.6987 160.398 39.816C160.515 39.9227 160.574 40.072 160.574 40.264V44.552C160.809 44.0613 161.15 43.6827 161.598 43.416C162.057 43.1493 162.59 43.016 163.198 43.016ZM162.942 50.04C163.699 50.04 164.286 49.7787 164.702 49.256C165.118 48.7227 165.326 47.9813 165.326 47.032C165.326 46.104 165.118 45.384 164.702 44.872C164.286 44.36 163.699 44.104 162.942 44.104C162.185 44.104 161.598 44.36 161.182 44.872C160.777 45.384 160.574 46.1147 160.574 47.064C160.574 48.0133 160.777 48.7493 161.182 49.272C161.598 49.784 162.185 50.04 162.942 50.04ZM171.823 51.112C171.087 51.112 170.436 50.9467 169.871 50.616C169.316 50.2853 168.884 49.816 168.575 49.208C168.276 48.5893 168.127 47.8747 168.127 47.064C168.127 46.2533 168.276 45.544 168.575 44.936C168.884 44.3173 169.316 43.8427 169.871 43.512C170.436 43.1813 171.087 43.016 171.823 43.016C172.559 43.016 173.209 43.1813 173.775 43.512C174.34 43.8427 174.772 44.3173 175.071 44.936C175.38 45.544 175.535 46.2533 175.535 47.064C175.535 47.8747 175.38 48.5893 175.071 49.208C174.772 49.816 174.34 50.2853 173.775 50.616C173.209 50.9467 172.559 51.112 171.823 51.112ZM171.823 50.04C172.591 50.04 173.177 49.7893 173.583 49.288C173.999 48.776 174.207 48.0347 174.207 47.064C174.207 46.1147 173.999 45.384 173.583 44.872C173.167 44.3493 172.58 44.088 171.823 44.088C171.065 44.088 170.479 44.3493 170.063 44.872C169.647 45.384 169.439 46.1147 169.439 47.064C169.439 48.024 169.641 48.76 170.047 49.272C170.463 49.784 171.055 50.04 171.823 50.04ZM180.698 51.112C179.962 51.112 179.311 50.9467 178.746 50.616C178.191 50.2853 177.759 49.816 177.45 49.208C177.151 48.5893 177.002 47.8747 177.002 47.064C177.002 46.2533 177.151 45.544 177.45 44.936C177.759 44.3173 178.191 43.8427 178.746 43.512C179.311 43.1813 179.962 43.016 180.698 43.016C181.434 43.016 182.084 43.1813 182.65 43.512C183.215 43.8427 183.647 44.3173 183.946 44.936C184.255 45.544 184.41 46.2533 184.41 47.064C184.41 47.8747 184.255 48.5893 183.946 49.208C183.647 49.816 183.215 50.2853 182.65 50.616C182.084 50.9467 181.434 51.112 180.698 51.112ZM180.698 50.04C181.466 50.04 182.052 49.7893 182.458 49.288C182.874 48.776 183.082 48.0347 183.082 47.064C183.082 46.1147 182.874 45.384 182.458 44.872C182.042 44.3493 181.455 44.088 180.698 44.088C179.94 44.088 179.354 44.3493 178.938 44.872C178.522 45.384 178.314 46.1147 178.314 47.064C178.314 48.024 178.516 48.76 178.922 49.272C179.338 49.784 179.93 50.04 180.698 50.04ZM192.565 49.976C192.735 50.136 192.821 50.3067 192.821 50.488C192.821 50.648 192.762 50.7867 192.645 50.904C192.538 51.0213 192.405 51.08 192.245 51.08C192.106 51.08 191.962 51.016 191.813 50.888L187.637 47.288V50.44C187.637 50.6427 187.573 50.8027 187.445 50.92C187.327 51.0267 187.178 51.08 186.997 51.08C186.805 51.08 186.645 51.0267 186.517 50.92C186.399 50.8027 186.341 50.6427 186.341 50.44V40.28C186.341 40.0773 186.399 39.9227 186.517 39.816C186.645 39.6987 186.805 39.64 186.997 39.64C187.178 39.64 187.327 39.6987 187.445 39.816C187.573 39.9227 187.637 40.0773 187.637 40.28V46.776L191.461 43.272C191.589 43.144 191.733 43.08 191.893 43.08C192.053 43.08 192.191 43.1387 192.309 43.256C192.426 43.3733 192.485 43.512 192.485 43.672C192.485 43.8533 192.41 44.0133 192.261 44.152L189.109 46.968L192.565 49.976Z" fill="white"/>
<path d="M6.888 24L0.024 7.2H2.736L8.424 21.504L14.208 7.2H16.8L9.84 24H6.888ZM19.4441 9.816C19.0441 9.816 18.7001 9.672 18.4121 9.384C18.1241 9.08 17.9801 8.728 17.9801 8.328C17.9801 7.928 18.1241 7.584 18.4121 7.296C18.7001 6.992 19.0441 6.84 19.4441 6.84C19.8441 6.84 20.1881 6.992 20.4761 7.296C20.7801 7.584 20.9321 7.928 20.9321 8.328C20.9321 8.728 20.7801 9.08 20.4761 9.384C20.1881 9.672 19.8441 9.816 19.4441 9.816ZM20.6441 11.784V24H18.2441V11.784H20.6441ZM23.4707 24V7.2L25.8707 6.672V17.16L31.7987 11.784H34.6067L28.3187 17.52L34.9427 24H31.7747L25.8707 18.24V24H23.4707ZM39.4519 24.216C38.1239 24.216 37.0439 23.872 36.2119 23.184C35.3799 22.496 34.9639 21.6 34.9639 20.496C34.9639 19.344 35.4039 18.44 36.2839 17.784C37.1639 17.112 38.3719 16.776 39.9079 16.776C40.4999 16.776 41.0759 16.84 41.6359 16.968C42.1959 17.08 42.7319 17.24 43.2439 17.448V16.152C43.2439 15.288 42.9879 14.64 42.4759 14.208C41.9639 13.776 41.2279 13.56 40.2679 13.56C39.7079 13.56 39.1239 13.648 38.5159 13.824C37.9079 13.984 37.2279 14.24 36.4759 14.592L35.5879 12.792C36.4999 12.36 37.3639 12.048 38.1799 11.856C38.9959 11.648 39.8039 11.544 40.6039 11.544C42.1879 11.544 43.4119 11.928 44.2759 12.696C45.1559 13.448 45.5959 14.52 45.5959 15.912V24H43.2439V22.944C42.6999 23.376 42.1159 23.696 41.4919 23.904C40.8679 24.112 40.1879 24.216 39.4519 24.216ZM37.2679 20.448C37.2679 21.04 37.5159 21.52 38.0119 21.888C38.5239 22.256 39.1879 22.44 40.0039 22.44C40.6439 22.44 41.2359 22.344 41.7799 22.152C42.3239 21.96 42.8119 21.672 43.2439 21.288V19.176C42.7799 18.92 42.2919 18.736 41.7799 18.624C41.2679 18.496 40.7079 18.432 40.0999 18.432C39.2359 18.432 38.5479 18.616 38.0359 18.984C37.5239 19.352 37.2679 19.84 37.2679 20.448ZM52.2253 24.216C50.8973 24.216 49.8173 23.872 48.9853 23.184C48.1533 22.496 47.7373 21.6 47.7373 20.496C47.7373 19.344 48.1773 18.44 49.0573 17.784C49.9373 17.112 51.1453 16.776 52.6813 16.776C53.2733 16.776 53.8493 16.84 54.4093 16.968C54.9693 17.08 55.5053 17.24 56.0173 17.448V16.152C56.0173 15.288 55.7613 14.64 55.2493 14.208C54.7373 13.776 54.0013 13.56 53.0413 13.56C52.4813 13.56 51.8973 13.648 51.2893 13.824C50.6813 13.984 50.0013 14.24 49.2493 14.592L48.3613 12.792C49.2733 12.36 50.1373 12.048 50.9533 11.856C51.7693 11.648 52.5773 11.544 53.3773 11.544C54.9613 11.544 56.1853 11.928 57.0493 12.696C57.9293 13.448 58.3693 14.52 58.3693 15.912V24H56.0173V22.944C55.4733 23.376 54.8893 23.696 54.2653 23.904C53.6413 24.112 52.9613 24.216 52.2253 24.216ZM50.0413 20.448C50.0413 21.04 50.2893 21.52 50.7853 21.888C51.2973 22.256 51.9613 22.44 52.7773 22.44C53.4173 22.44 54.0093 22.344 54.5533 22.152C55.0973 21.96 55.5853 21.672 56.0173 21.288V19.176C55.5533 18.92 55.0653 18.736 54.5533 18.624C54.0413 18.496 53.4813 18.432 52.8733 18.432C52.0093 18.432 51.3213 18.616 50.8093 18.984C50.2973 19.352 50.0413 19.84 50.0413 20.448ZM59.9828 22.416L61.2788 20.832C61.9188 21.328 62.5668 21.712 63.2228 21.984C63.8948 22.24 64.5748 22.368 65.2628 22.368C66.1268 22.368 66.8308 22.2 67.3748 21.864C67.9188 21.528 68.1908 21.088 68.1908 20.544C68.1908 20.112 68.0308 19.768 67.7108 19.512C67.3908 19.256 66.8948 19.08 66.2228 18.984L64.0148 18.672C62.8148 18.496 61.9028 18.128 61.2788 17.568C60.6708 16.992 60.3668 16.232 60.3668 15.288C60.3668 14.184 60.8068 13.296 61.6868 12.624C62.5668 11.936 63.7188 11.592 65.1428 11.592C66.0388 11.592 66.8868 11.72 67.6868 11.976C68.5028 12.232 69.2948 12.624 70.0628 13.152L68.8388 14.736C68.1668 14.288 67.5108 13.968 66.8708 13.776C66.2468 13.568 65.6148 13.464 64.9748 13.464C64.2388 13.464 63.6468 13.616 63.1988 13.92C62.7508 14.224 62.5268 14.624 62.5268 15.12C62.5268 15.568 62.6788 15.912 62.9828 16.152C63.3028 16.376 63.8228 16.544 64.5428 16.656L66.7508 16.968C67.9508 17.144 68.8628 17.52 69.4868 18.096C70.1268 18.672 70.4468 19.432 70.4468 20.376C70.4468 20.92 70.3108 21.432 70.0388 21.912C69.7828 22.376 69.4228 22.776 68.9588 23.112C68.5108 23.448 67.9748 23.72 67.3508 23.928C66.7268 24.12 66.0548 24.216 65.3348 24.216C64.2788 24.216 63.2868 24.064 62.3588 23.76C61.4468 23.456 60.6548 23.008 59.9828 22.416ZM85.7546 21.936C86.7146 21.936 87.6346 21.744 88.5146 21.36C89.3946 20.96 90.1386 20.4 90.7466 19.68L92.4026 21.36C91.5866 22.256 90.5786 22.968 89.3786 23.496C88.1946 24.008 86.9626 24.264 85.6826 24.264C84.4506 24.264 83.2906 24.04 82.2026 23.592C81.1306 23.144 80.2026 22.536 79.4186 21.768C78.6346 20.984 78.0106 20.064 77.5466 19.008C77.0986 17.936 76.8746 16.8 76.8746 15.6C76.8746 14.384 77.0986 13.248 77.5466 12.192C78.0106 11.136 78.6346 10.224 79.4186 9.456C80.2026 8.672 81.1306 8.056 82.2026 7.608C83.2906 7.16 84.4506 6.936 85.6826 6.936C86.9946 6.936 88.2506 7.2 89.4506 7.728C90.6666 8.24 91.6666 8.944 92.4506 9.84L90.7706 11.568C90.1306 10.832 89.3626 10.264 88.4666 9.864C87.5706 9.464 86.6426 9.264 85.6826 9.264C84.8026 9.264 83.9786 9.424 83.2106 9.744C82.4426 10.064 81.7786 10.512 81.2186 11.088C80.6746 11.648 80.2426 12.32 79.9226 13.104C79.6026 13.872 79.4426 14.704 79.4426 15.6C79.4426 16.496 79.6026 17.336 79.9226 18.12C80.2426 18.888 80.6826 19.552 81.2426 20.112C81.8026 20.672 82.4666 21.12 83.2346 21.456C84.0186 21.776 84.8586 21.936 85.7546 21.936ZM94.5801 24V11.784H96.9801V13.344C97.3481 12.752 97.8201 12.304 98.3961 12C98.9721 11.68 99.6201 11.52 100.34 11.52C100.596 11.52 100.82 11.536 101.012 11.568C101.204 11.6 101.388 11.648 101.564 11.712V13.872C101.34 13.792 101.108 13.728 100.868 13.68C100.628 13.632 100.388 13.608 100.148 13.608C99.4441 13.608 98.8121 13.8 98.2521 14.184C97.7081 14.552 97.2841 15.104 96.9801 15.84V24H94.5801ZM106.835 24.216C105.507 24.216 104.427 23.872 103.595 23.184C102.763 22.496 102.347 21.6 102.347 20.496C102.347 19.344 102.787 18.44 103.667 17.784C104.547 17.112 105.755 16.776 107.291 16.776C107.883 16.776 108.459 16.84 109.019 16.968C109.579 17.08 110.115 17.24 110.627 17.448V16.152C110.627 15.288 110.371 14.64 109.859 14.208C109.347 13.776 108.611 13.56 107.651 13.56C107.091 13.56 106.507 13.648 105.899 13.824C105.291 13.984 104.611 14.24 103.859 14.592L102.971 12.792C103.883 12.36 104.747 12.048 105.563 11.856C106.379 11.648 107.187 11.544 107.987 11.544C109.571 11.544 110.795 11.928 111.659 12.696C112.539 13.448 112.979 14.52 112.979 15.912V24H110.627V22.944C110.083 23.376 109.499 23.696 108.875 23.904C108.251 24.112 107.571 24.216 106.835 24.216ZM104.651 20.448C104.651 21.04 104.899 21.52 105.395 21.888C105.907 22.256 106.571 22.44 107.387 22.44C108.027 22.44 108.619 22.344 109.163 22.152C109.707 21.96 110.195 21.672 110.627 21.288V19.176C110.163 18.92 109.675 18.736 109.163 18.624C108.651 18.496 108.091 18.432 107.483 18.432C106.619 18.432 105.931 18.616 105.419 18.984C104.907 19.352 104.651 19.84 104.651 20.448ZM115.744 24V11.784H118.144V13.008C118.624 12.528 119.168 12.168 119.776 11.928C120.4 11.672 121.08 11.544 121.816 11.544C123.208 11.544 124.352 11.992 125.248 12.888C126.144 13.768 126.592 14.912 126.592 16.32V24H124.192V16.728C124.192 15.768 123.912 15.016 123.352 14.472C122.808 13.912 122.08 13.632 121.168 13.632C120.528 13.632 119.944 13.768 119.416 14.04C118.904 14.312 118.48 14.704 118.144 15.216V24H115.744ZM139.945 22.608C139.241 23.152 138.505 23.56 137.737 23.832C136.969 24.088 136.129 24.216 135.217 24.216C134.321 24.216 133.481 24.056 132.697 23.736C131.913 23.4 131.233 22.952 130.657 22.392C130.081 21.832 129.625 21.168 129.289 20.4C128.969 19.616 128.809 18.776 128.809 17.88C128.809 17 128.969 16.176 129.289 15.408C129.609 14.64 130.041 13.976 130.585 13.416C131.129 12.856 131.777 12.416 132.529 12.096C133.281 11.76 134.081 11.592 134.929 11.592C135.761 11.592 136.537 11.76 137.257 12.096C137.993 12.416 138.617 12.864 139.129 13.44C139.657 14 140.073 14.672 140.377 15.456C140.681 16.24 140.833 17.08 140.833 17.976V18.672H131.185C131.345 19.68 131.809 20.52 132.577 21.192C133.345 21.848 134.257 22.176 135.313 22.176C135.905 22.176 136.473 22.08 137.017 21.888C137.561 21.696 138.025 21.432 138.409 21.096L139.945 22.608ZM134.881 13.608C133.969 13.608 133.169 13.912 132.481 14.52C131.809 15.128 131.385 15.912 131.209 16.872H138.457C138.281 15.944 137.857 15.168 137.185 14.544C136.529 13.92 135.761 13.608 134.881 13.608Z" fill="white"/>
</svg>
