<svg width="135" height="24" viewBox="0 0 135 24" fill="none" xmlns="http://www.w3.org/2000/svg">
<path d="M1.636 18V6.8H6.724C7.83333 6.8 8.72933 7.10933 9.412 7.728C10.1053 8.336 10.452 9.13067 10.452 10.112C10.452 10.848 10.244 11.488 9.828 12.032C9.412 12.5653 8.852 12.9493 8.148 13.184L10.644 18H8.788L6.468 13.408H3.316V18H1.636ZM6.58 8.272H3.316V12.016H6.58C7.23067 12.016 7.75333 11.8453 8.148 11.504C8.55333 11.152 8.756 10.6987 8.756 10.144C8.756 9.57867 8.55333 9.12533 8.148 8.784C7.75333 8.44267 7.23067 8.272 6.58 8.272ZM18.5625 17.072C18.0932 17.4347 17.6025 17.7067 17.0905 17.888C16.5785 18.0587 16.0185 18.144 15.4105 18.144C14.8132 18.144 14.2532 18.0373 13.7305 17.824C13.2078 17.6 12.7545 17.3013 12.3705 16.928C11.9865 16.5547 11.6825 16.112 11.4585 15.6C11.2452 15.0773 11.1385 14.5173 11.1385 13.92C11.1385 13.3333 11.2452 12.784 11.4585 12.272C11.6718 11.76 11.9598 11.3173 12.3225 10.944C12.6852 10.5707 13.1172 10.2773 13.6185 10.064C14.1198 9.84 14.6532 9.728 15.2185 9.728C15.7732 9.728 16.2905 9.84 16.7705 10.064C17.2612 10.2773 17.6772 10.576 18.0185 10.96C18.3705 11.3333 18.6478 11.7813 18.8505 12.304C19.0532 12.8267 19.1545 13.3867 19.1545 13.984V14.448H12.7225C12.8292 15.12 13.1385 15.68 13.6505 16.128C14.1625 16.5653 14.7705 16.784 15.4745 16.784C15.8692 16.784 16.2478 16.72 16.6105 16.592C16.9732 16.464 17.2825 16.288 17.5385 16.064L18.5625 17.072ZM15.1865 11.072C14.5785 11.072 14.0452 11.2747 13.5865 11.68C13.1385 12.0853 12.8558 12.608 12.7385 13.248H17.5705C17.4532 12.6293 17.1705 12.112 16.7225 11.696C16.2852 11.28 15.7732 11.072 15.1865 11.072ZM23.1606 18.144C22.2753 18.144 21.5553 17.9147 21.0006 17.456C20.446 16.9973 20.1686 16.4 20.1686 15.664C20.1686 14.896 20.462 14.2933 21.0486 13.856C21.6353 13.408 22.4406 13.184 23.4646 13.184C23.8593 13.184 24.2433 13.2267 24.6166 13.312C24.99 13.3867 25.3473 13.4933 25.6886 13.632V12.768C25.6886 12.192 25.518 11.76 25.1766 11.472C24.8353 11.184 24.3446 11.04 23.7046 11.04C23.3313 11.04 22.942 11.0987 22.5366 11.216C22.1313 11.3227 21.678 11.4933 21.1766 11.728L20.5846 10.528C21.1926 10.24 21.7686 10.032 22.3126 9.904C22.8566 9.76533 23.3953 9.696 23.9286 9.696C24.9846 9.696 25.8006 9.952 26.3766 10.464C26.9633 10.9653 27.2566 11.68 27.2566 12.608V18H25.6886V17.296C25.326 17.584 24.9366 17.7973 24.5206 17.936C24.1046 18.0747 23.6513 18.144 23.1606 18.144ZM21.7046 15.632C21.7046 16.0267 21.87 16.3467 22.2006 16.592C22.542 16.8373 22.9846 16.96 23.5286 16.96C23.9553 16.96 24.35 16.896 24.7126 16.768C25.0753 16.64 25.4006 16.448 25.6886 16.192V14.784C25.3793 14.6133 25.054 14.4907 24.7126 14.416C24.3713 14.3307 23.998 14.288 23.5926 14.288C23.0166 14.288 22.558 14.4107 22.2166 14.656C21.8753 14.9013 21.7046 15.2267 21.7046 15.632ZM35.3403 18V17.232C34.9989 17.52 34.6149 17.744 34.1883 17.904C33.7616 18.0533 33.3136 18.128 32.8443 18.128C32.2683 18.128 31.7296 18.0213 31.2283 17.808C30.7269 17.584 30.2896 17.2853 29.9163 16.912C29.5536 16.5387 29.2656 16.096 29.0523 15.584C28.8389 15.0613 28.7323 14.5067 28.7323 13.92C28.7323 13.3333 28.8389 12.784 29.0523 12.272C29.2656 11.76 29.5536 11.3173 29.9163 10.944C30.2896 10.5707 30.7323 10.2773 31.2443 10.064C31.7563 9.84 32.3003 9.728 32.8763 9.728C33.3243 9.728 33.7563 9.79733 34.1723 9.936C34.5883 10.0747 34.9723 10.272 35.3243 10.528V6.8L36.9243 6.448V18H35.3403ZM30.3003 13.904C30.3003 14.704 30.5669 15.376 31.1003 15.92C31.6336 16.464 32.2896 16.736 33.0683 16.736C33.5269 16.736 33.9483 16.6507 34.3323 16.48C34.7269 16.3093 35.0576 16.0693 35.3243 15.76V12.064C35.0576 11.7653 34.7269 11.5307 34.3323 11.36C33.9376 11.1893 33.5163 11.104 33.0683 11.104C32.2896 11.104 31.6336 11.3707 31.1003 11.904C30.5669 12.4373 30.3003 13.104 30.3003 13.904ZM41.4908 9.856H43.3788V8.624C43.3788 7.78133 43.6134 7.136 44.0828 6.688C44.5628 6.22933 45.2508 6 46.1468 6C46.3601 6 46.5628 6.016 46.7548 6.048C46.9468 6.06933 47.1281 6.10133 47.2988 6.144V7.536C47.1068 7.48267 46.9361 7.44533 46.7868 7.424C46.6374 7.40267 46.4721 7.392 46.2908 7.392C45.8534 7.392 45.5228 7.49867 45.2988 7.712C45.0854 7.91467 44.9788 8.22933 44.9788 8.656V9.856H47.2988V11.2H44.9788V18H43.3788V11.2H41.4908V9.856ZM50.0901 9.856V14.688C50.0901 15.328 50.2715 15.8347 50.6341 16.208C51.0075 16.5813 51.4981 16.768 52.1061 16.768C52.5328 16.768 52.9168 16.6773 53.2581 16.496C53.5995 16.304 53.8821 16.0373 54.1061 15.696V9.856H55.7061V18H54.1061V17.184C53.7861 17.504 53.4181 17.7493 53.0021 17.92C52.5968 18.08 52.1488 18.16 51.6581 18.16C50.7301 18.16 49.9675 17.8613 49.3701 17.264C48.7835 16.6667 48.4901 15.8987 48.4901 14.96V9.856H50.0901ZM59.2003 6.448V18H57.6003V6.8L59.2003 6.448ZM62.6846 6.448V18H61.0846V6.8L62.6846 6.448ZM67.1448 16.944L68.0088 15.888C68.4354 16.2187 68.8674 16.4747 69.3048 16.656C69.7528 16.8267 70.2061 16.912 70.6648 16.912C71.2408 16.912 71.7101 16.8 72.0728 16.576C72.4354 16.352 72.6168 16.0587 72.6168 15.696C72.6168 15.408 72.5101 15.1787 72.2968 15.008C72.0834 14.8373 71.7528 14.72 71.3048 14.656L69.8328 14.448C69.0328 14.3307 68.4248 14.0853 68.0088 13.712C67.6034 13.328 67.4008 12.8213 67.4008 12.192C67.4008 11.456 67.6941 10.864 68.2808 10.416C68.8674 9.95733 69.6354 9.728 70.5848 9.728C71.1821 9.728 71.7474 9.81333 72.2808 9.984C72.8248 10.1547 73.3528 10.416 73.8648 10.768L73.0488 11.824C72.6008 11.5253 72.1634 11.312 71.7368 11.184C71.3208 11.0453 70.8994 10.976 70.4728 10.976C69.9821 10.976 69.5874 11.0773 69.2888 11.28C68.9901 11.4827 68.8408 11.7493 68.8408 12.08C68.8408 12.3787 68.9421 12.608 69.1448 12.768C69.3581 12.9173 69.7048 13.0293 70.1848 13.104L71.6568 13.312C72.4568 13.4293 73.0648 13.68 73.4808 14.064C73.9074 14.448 74.1208 14.9547 74.1208 15.584C74.1208 15.9467 74.0301 16.288 73.8488 16.608C73.6781 16.9173 73.4381 17.184 73.1288 17.408C72.8301 17.632 72.4728 17.8133 72.0568 17.952C71.6408 18.08 71.1928 18.144 70.7128 18.144C70.0088 18.144 69.3474 18.0427 68.7288 17.84C68.1208 17.6373 67.5928 17.3387 67.1448 16.944ZM76.25 15.984V11.2H74.522V9.856H76.25V7.776L77.834 7.392V9.856H80.234V11.2H77.834V15.616C77.834 16.032 77.9247 16.3253 78.106 16.496C78.298 16.6667 78.6073 16.752 79.034 16.752C79.258 16.752 79.4553 16.7413 79.626 16.72C79.8073 16.688 79.9993 16.6347 80.202 16.56V17.904C79.9887 17.9787 79.738 18.0373 79.45 18.08C79.1727 18.1227 78.9167 18.144 78.682 18.144C77.8927 18.144 77.29 17.9627 76.874 17.6C76.458 17.2267 76.25 16.688 76.25 15.984ZM80.8729 13.92C80.8729 13.3333 80.9795 12.784 81.1929 12.272C81.4169 11.7493 81.7209 11.3013 82.1049 10.928C82.4889 10.544 82.9369 10.2453 83.4489 10.032C83.9715 9.808 84.5262 9.696 85.1129 9.696C85.6995 9.696 86.2489 9.808 86.7609 10.032C87.2835 10.2453 87.7315 10.544 88.1049 10.928C88.4889 11.3013 88.7875 11.7493 89.0009 12.272C89.2249 12.784 89.3369 13.3333 89.3369 13.92C89.3369 14.5173 89.2249 15.0773 89.0009 15.6C88.7875 16.112 88.4889 16.56 88.1049 16.944C87.7315 17.3173 87.2835 17.616 86.7609 17.84C86.2489 18.0533 85.6995 18.16 85.1129 18.16C84.5262 18.16 83.9715 18.0533 83.4489 17.84C82.9369 17.616 82.4889 17.3173 82.1049 16.944C81.7209 16.56 81.4169 16.112 81.1929 15.6C80.9795 15.0773 80.8729 14.5173 80.8729 13.92ZM85.1129 16.752C85.8489 16.752 86.4729 16.48 86.9849 15.936C87.5075 15.3813 87.7689 14.7093 87.7689 13.92C87.7689 13.1307 87.5075 12.464 86.9849 11.92C86.4729 11.376 85.8489 11.104 85.1129 11.104C84.3769 11.104 83.7475 11.376 83.2249 11.92C82.7022 12.464 82.4409 13.1307 82.4409 13.92C82.4409 14.7093 82.6969 15.3813 83.2089 15.936C83.7315 16.48 84.3662 16.752 85.1129 16.752ZM90.8503 18V9.856H92.4503V10.896C92.6956 10.5013 93.0103 10.2027 93.3943 10C93.7783 9.78667 94.2103 9.68 94.6903 9.68C94.8609 9.68 95.0103 9.69067 95.1383 9.712C95.2663 9.73333 95.3889 9.76533 95.5063 9.808V11.248C95.3569 11.1947 95.2023 11.152 95.0423 11.12C94.8823 11.088 94.7223 11.072 94.5623 11.072C94.0929 11.072 93.6716 11.2 93.2983 11.456C92.9356 11.7013 92.6529 12.0693 92.4503 12.56V18H90.8503ZM98.976 18.768L99.296 18.032L96.048 9.856H97.808L100.192 16.08L102.816 9.856H104.544L100.608 18.976C100.235 19.84 99.808 20.4587 99.328 20.832C98.848 21.216 98.2347 21.408 97.488 21.408C97.3173 21.408 97.1573 21.3973 97.008 21.376C96.8693 21.3653 96.7467 21.344 96.64 21.312V19.904C96.7467 19.9253 96.8533 19.9413 96.96 19.952C97.0773 19.9627 97.2107 19.968 97.36 19.968C97.7227 19.968 98.0373 19.8667 98.304 19.664C98.5813 19.472 98.8053 19.1733 98.976 18.768Z" fill="#44A0FF"/>
<path fill-rule="evenodd" clip-rule="evenodd" d="M121.602 6.80376L122.197 6.19373C122.448 5.93542 122.856 5.93542 123.105 6.19373L128.311 11.5329C128.563 11.7912 128.563 12.2088 128.311 12.4644L123.105 17.8063C122.853 18.0646 122.446 18.0646 122.197 17.8063L121.602 17.1962C121.348 16.9352 121.353 16.5093 121.613 16.2537L124.84 13.0992H117.143C116.787 13.0992 116.5 12.8051 116.5 12.4397V11.5603C116.5 11.1949 116.787 10.9008 117.143 10.9008H124.84L121.613 7.74628C121.35 7.49073 121.345 7.0648 121.602 6.80376Z" fill="#44A0FF"/>
</svg>
