<svg width="112" height="24" viewBox="0 0 112 24" fill="none" xmlns="http://www.w3.org/2000/svg">
<path d="M1.136 18V6.8H2.816V16.512H9.264V18H1.136ZM17.4062 17.072C16.9369 17.4347 16.4463 17.7067 15.9343 17.888C15.4223 18.0587 14.8623 18.144 14.2543 18.144C13.6569 18.144 13.0969 18.0373 12.5743 17.824C12.0516 17.6 11.5983 17.3013 11.2143 16.928C10.8303 16.5547 10.5263 16.112 10.3023 15.6C10.0889 15.0773 9.98225 14.5173 9.98225 13.92C9.98225 13.3333 10.0889 12.784 10.3023 12.272C10.5156 11.76 10.8036 11.3173 11.1663 10.944C11.5289 10.5707 11.9609 10.2773 12.4623 10.064C12.9636 9.84 13.4969 9.728 14.0623 9.728C14.6169 9.728 15.1343 9.84 15.6143 10.064C16.1049 10.2773 16.5209 10.576 16.8623 10.96C17.2143 11.3333 17.4916 11.7813 17.6943 12.304C17.8969 12.8267 17.9983 13.3867 17.9983 13.984V14.448H11.5663C11.6729 15.12 11.9823 15.68 12.4943 16.128C13.0063 16.5653 13.6143 16.784 14.3183 16.784C14.7129 16.784 15.0916 16.72 15.4543 16.592C15.8169 16.464 16.1263 16.288 16.3823 16.064L17.4062 17.072ZM14.0303 11.072C13.4223 11.072 12.8889 11.2747 12.4303 11.68C11.9823 12.0853 11.6996 12.608 11.5823 13.248H16.4143C16.2969 12.6293 16.0143 12.112 15.5663 11.696C15.1289 11.28 14.6169 11.072 14.0303 11.072ZM22.0044 18.144C21.119 18.144 20.399 17.9147 19.8444 17.456C19.2897 16.9973 19.0124 16.4 19.0124 15.664C19.0124 14.896 19.3057 14.2933 19.8924 13.856C20.479 13.408 21.2844 13.184 22.3084 13.184C22.703 13.184 23.087 13.2267 23.4604 13.312C23.8337 13.3867 24.191 13.4933 24.5324 13.632V12.768C24.5324 12.192 24.3617 11.76 24.0204 11.472C23.679 11.184 23.1884 11.04 22.5484 11.04C22.175 11.04 21.7857 11.0987 21.3804 11.216C20.975 11.3227 20.5217 11.4933 20.0204 11.728L19.4284 10.528C20.0364 10.24 20.6124 10.032 21.1564 9.904C21.7004 9.76533 22.239 9.696 22.7724 9.696C23.8284 9.696 24.6444 9.952 25.2204 10.464C25.807 10.9653 26.1004 11.68 26.1004 12.608V18H24.5324V17.296C24.1697 17.584 23.7804 17.7973 23.3644 17.936C22.9484 18.0747 22.495 18.144 22.0044 18.144ZM20.5484 15.632C20.5484 16.0267 20.7137 16.3467 21.0444 16.592C21.3857 16.8373 21.8284 16.96 22.3724 16.96C22.799 16.96 23.1937 16.896 23.5564 16.768C23.919 16.64 24.2444 16.448 24.5324 16.192V14.784C24.223 14.6133 23.8977 14.4907 23.5564 14.416C23.215 14.3307 22.8417 14.288 22.4364 14.288C21.8604 14.288 21.4017 14.4107 21.0604 14.656C20.719 14.9013 20.5484 15.2267 20.5484 15.632ZM27.944 18V9.856H29.544V10.896C29.7893 10.5013 30.104 10.2027 30.488 10C30.872 9.78667 31.304 9.68 31.784 9.68C31.9547 9.68 32.104 9.69067 32.232 9.712C32.36 9.73333 32.4827 9.76533 32.6 9.808V11.248C32.4507 11.1947 32.296 11.152 32.136 11.12C31.976 11.088 31.816 11.072 31.656 11.072C31.1867 11.072 30.7653 11.2 30.392 11.456C30.0293 11.7013 29.7467 12.0693 29.544 12.56V18H27.944ZM33.8815 18V9.856H35.4815V10.672C35.8015 10.352 36.1642 10.112 36.5695 9.952C36.9855 9.78133 37.4388 9.696 37.9295 9.696C38.8575 9.696 39.6202 9.99467 40.2175 10.592C40.8148 11.1787 41.1135 11.9413 41.1135 12.88V18H39.5135V13.152C39.5135 12.512 39.3268 12.0107 38.9535 11.648C38.5908 11.2747 38.1055 11.088 37.4975 11.088C37.0708 11.088 36.6815 11.1787 36.3295 11.36C35.9882 11.5413 35.7055 11.8027 35.4815 12.144V18H33.8815ZM52.2394 17.2L48.0634 8.88V18H46.4954V6.8H48.7354L52.2554 13.952L55.7594 6.8H57.9994V18H56.4154V8.864L52.2394 17.2ZM59.7166 13.92C59.7166 13.3333 59.8233 12.784 60.0366 12.272C60.2606 11.7493 60.5646 11.3013 60.9486 10.928C61.3326 10.544 61.7806 10.2453 62.2926 10.032C62.8153 9.808 63.37 9.696 63.9566 9.696C64.5433 9.696 65.0926 9.808 65.6046 10.032C66.1273 10.2453 66.5753 10.544 66.9486 10.928C67.3326 11.3013 67.6313 11.7493 67.8446 12.272C68.0686 12.784 68.1806 13.3333 68.1806 13.92C68.1806 14.5173 68.0686 15.0773 67.8446 15.6C67.6313 16.112 67.3326 16.56 66.9486 16.944C66.5753 17.3173 66.1273 17.616 65.6046 17.84C65.0926 18.0533 64.5433 18.16 63.9566 18.16C63.37 18.16 62.8153 18.0533 62.2926 17.84C61.7806 17.616 61.3326 17.3173 60.9486 16.944C60.5646 16.56 60.2606 16.112 60.0366 15.6C59.8233 15.0773 59.7166 14.5173 59.7166 13.92ZM63.9566 16.752C64.6926 16.752 65.3166 16.48 65.8286 15.936C66.3513 15.3813 66.6126 14.7093 66.6126 13.92C66.6126 13.1307 66.3513 12.464 65.8286 11.92C65.3166 11.376 64.6926 11.104 63.9566 11.104C63.2206 11.104 62.5913 11.376 62.0686 11.92C61.546 12.464 61.2846 13.1307 61.2846 13.92C61.2846 14.7093 61.5406 15.3813 62.0526 15.936C62.5753 16.48 63.21 16.752 63.9566 16.752ZM69.694 18V9.856H71.294V10.896C71.5393 10.5013 71.854 10.2027 72.238 10C72.622 9.78667 73.054 9.68 73.534 9.68C73.7047 9.68 73.854 9.69067 73.982 9.712C74.11 9.73333 74.2327 9.76533 74.35 9.808V11.248C74.2007 11.1947 74.046 11.152 73.886 11.12C73.726 11.088 73.566 11.072 73.406 11.072C72.9367 11.072 72.5153 11.2 72.142 11.456C71.7793 11.7013 71.4967 12.0693 71.294 12.56V18H69.694ZM82.1875 17.072C81.7182 17.4347 81.2275 17.7067 80.7155 17.888C80.2035 18.0587 79.6435 18.144 79.0355 18.144C78.4382 18.144 77.8782 18.0373 77.3555 17.824C76.8328 17.6 76.3795 17.3013 75.9955 16.928C75.6115 16.5547 75.3075 16.112 75.0835 15.6C74.8702 15.0773 74.7635 14.5173 74.7635 13.92C74.7635 13.3333 74.8702 12.784 75.0835 12.272C75.2968 11.76 75.5848 11.3173 75.9475 10.944C76.3102 10.5707 76.7422 10.2773 77.2435 10.064C77.7448 9.84 78.2782 9.728 78.8435 9.728C79.3982 9.728 79.9155 9.84 80.3955 10.064C80.8862 10.2773 81.3022 10.576 81.6435 10.96C81.9955 11.3333 82.2728 11.7813 82.4755 12.304C82.6782 12.8267 82.7795 13.3867 82.7795 13.984V14.448H76.3475C76.4542 15.12 76.7635 15.68 77.2755 16.128C77.7875 16.5653 78.3955 16.784 79.0995 16.784C79.4942 16.784 79.8728 16.72 80.2355 16.592C80.5982 16.464 80.9075 16.288 81.1635 16.064L82.1875 17.072ZM78.8115 11.072C78.2035 11.072 77.6702 11.2747 77.2115 11.68C76.7635 12.0853 76.4808 12.608 76.3635 13.248H81.1955C81.0782 12.6293 80.7955 12.112 80.3475 11.696C79.9102 11.28 79.3982 11.072 78.8115 11.072Z" fill="#44A0FF"/>
<path fill-rule="evenodd" clip-rule="evenodd" d="M99.1021 6.80376L99.6967 6.19373C99.9484 5.93542 100.356 5.93542 100.605 6.19373L105.811 11.5329C106.063 11.7912 106.063 12.2088 105.811 12.4644L100.605 17.8063C100.353 18.0646 99.9458 18.0646 99.6967 17.8063L99.1021 17.1962C98.8477 16.9352 98.853 16.5093 99.1128 16.2537L102.34 13.0992H94.6428C94.2866 13.0992 94 12.8051 94 12.4397V11.5603C94 11.1949 94.2866 10.9008 94.6428 10.9008H102.34L99.1128 7.74628C98.8504 7.49073 98.845 7.0648 99.1021 6.80376Z" fill="#44A0FF"/>
</svg>
